<svg version="1.1" id="Layer_1" xmlns="http://www.w3.org/2000/svg" xmlns:xlink="http://www.w3.org/1999/xlink" x="0px" y="0px"
	 width="100%" viewBox="0 0 1000 300" enable-background="new 0 0 1000 300" xml:space="preserve">
<path fill="#00000000" opacity="1.000000" stroke="none" 
	d="
M652.000000,301.000000 
	C434.666656,301.000000 217.833328,301.000000 1.000000,301.000000 
	C1.000000,201.000000 1.000000,101.000000 1.000000,1.000000 
	C334.333344,1.000000 667.666687,1.000000 1001.000000,1.000000 
	C1001.000000,101.000000 1001.000000,201.000000 1001.000000,301.000000 
	C884.833313,301.000000 768.666687,301.000000 652.000000,301.000000 
M737.971130,108.391266 
	C737.683533,107.911545 737.395996,107.431824 737.014832,106.169983 
	C735.991577,98.477959 730.839966,91.574562 716.541809,92.962448 
	C709.015869,93.692970 703.046509,100.332939 703.018127,108.765984 
	C702.958740,126.424782 703.216187,144.088760 702.820374,161.738861 
	C702.739685,165.333984 701.198181,169.595764 698.879028,172.310577 
	C691.817017,180.577332 680.176270,182.316879 670.397766,177.022644 
	C664.498596,173.828705 660.884094,169.019791 660.949524,161.779236 
	C661.106079,144.454849 661.041687,127.127937 660.982666,109.802338 
	C660.953186,101.146278 654.265686,93.546432 646.939880,92.945381 
	C631.904541,91.711807 626.454590,98.630676 626.237549,108.429489 
	C625.789307,128.662903 626.159790,148.950089 627.140564,169.169220 
	C628.069275,188.316772 639.991272,200.124268 656.780151,206.744278 
	C673.468262,213.324554 690.780151,213.032120 707.607544,206.635300 
	C718.384705,202.538437 727.588440,195.897919 732.327332,184.984756 
	C734.930481,178.989960 736.046692,172.349487 737.974060,165.338242 
	C737.927124,164.892044 737.880249,164.445831 737.977295,163.072159 
	C737.929321,145.048233 737.881348,127.024300 737.971130,108.391266 
M511.975220,49.865101 
	C509.634674,45.520401 506.472626,41.406277 501.431335,41.177826 
	C490.281830,40.672577 478.929871,39.844620 467.957184,41.333973 
	C450.924652,43.645836 436.404999,51.611221 425.193573,65.204323 
	C416.663513,75.546455 410.296997,87.022293 407.124481,99.919907 
	C402.322632,119.441422 398.364166,139.169815 393.960480,158.790802 
	C393.533997,160.691086 392.497437,162.454437 391.744110,164.281357 
	C391.268341,164.271500 390.792603,164.261642 390.316864,164.251785 
	C389.525604,162.769699 388.499451,161.365341 387.979370,159.793533 
	C382.588654,143.502213 377.417297,127.136353 371.820526,110.916962 
	C370.813782,107.999390 368.623474,105.032745 366.165802,103.152260 
	C355.342651,94.870811 340.294434,99.580666 335.897217,113.569778 
	C331.043915,129.009949 325.489563,144.232376 320.054932,159.483505 
	C319.443451,161.199509 317.627563,162.486328 316.370148,163.972153 
	C315.553955,162.531555 314.329041,161.182129 313.984283,159.636383 
	C310.242493,142.861511 306.358063,126.110130 303.095795,109.239548 
	C300.906860,97.919731 297.566467,92.530304 284.940735,92.854141 
	C274.207611,93.129433 266.130249,101.709145 269.398193,113.645721 
	C276.963196,141.277512 285.190796,168.727158 292.939789,196.309647 
	C296.665314,209.570602 308.464142,213.100723 320.518097,210.136490 
	C329.377258,207.957901 333.317719,201.157242 335.982574,193.342087 
	C340.896637,178.930511 345.610962,164.450790 350.535858,150.042984 
	C351.045380,148.552399 352.415344,147.355942 353.386078,146.023010 
	C354.604950,147.356384 356.371429,148.487854 356.950012,150.057281 
	C359.805664,157.803436 362.194092,165.721573 365.037811,173.472473 
	C368.538269,183.013443 371.635162,192.797318 376.189209,201.829453 
	C380.494385,210.368134 389.141113,211.994476 397.935455,210.895294 
	C405.185150,209.989182 411.067810,205.929642 413.762299,199.158310 
	C416.802032,191.519287 418.639771,183.401093 420.985413,175.486877 
	C428.339264,150.674484 435.135010,125.677048 443.284637,101.128998 
	C446.970428,90.026688 455.667358,82.265778 466.944153,77.941391 
	C476.002625,74.467674 485.455811,73.256073 494.953064,74.127281 
	C507.616638,75.288963 517.009399,64.652794 511.975220,49.865101 
M448.344818,245.944229 
	C451.910614,241.876190 455.728241,237.999863 458.997131,233.705811 
	C470.965729,217.983643 475.224609,199.315369 479.027100,180.472397 
	C481.434143,168.544678 484.038971,156.655289 486.726135,144.787445 
	C487.110535,143.089539 488.460693,141.610291 489.363892,140.029846 
	C490.578705,141.564285 492.321320,142.915955 492.925812,144.661728 
	C498.385590,160.429260 503.678253,176.255066 508.953888,192.085815 
	C512.538696,202.842987 524.611511,207.770462 534.811829,202.712402 
	C540.503052,199.890305 543.163391,194.980835 545.030762,189.302750 
	C549.990479,174.221863 554.965637,159.145203 560.122009,144.131210 
	C560.666748,142.545227 562.454895,141.386276 563.666138,140.029221 
	C564.779358,141.454529 566.561707,142.736420 566.902710,144.327271 
	C570.407898,160.676437 573.583435,177.096008 577.045044,193.454865 
	C580.154236,208.148163 583.909790,211.878006 597.294128,211.010391 
	C605.328735,210.489563 612.733093,203.401596 611.792603,195.483231 
	C610.883362,187.828094 608.430237,180.330811 606.369324,172.842926 
	C600.910767,153.010864 595.310974,133.217590 589.741638,113.416153 
	C585.191467,97.238243 580.001526,92.521599 564.269714,92.864304 
	C556.969360,93.023331 548.210449,100.170532 546.160767,105.769783 
	C542.544128,115.649918 539.337830,125.680832 535.992737,135.659668 
	C533.881348,141.958130 531.933472,148.314285 529.668823,154.556229 
	C529.184692,155.890701 527.648560,156.843521 526.597107,157.972153 
	C525.725830,156.944550 524.712341,156.002426 524.027466,154.862778 
	C523.459778,153.918045 523.295288,152.735016 522.925110,151.666962 
	C518.097473,137.739609 513.240845,123.822235 508.446014,109.883614 
	C506.616241,104.564568 503.920776,100.125038 499.240387,96.560669 
	C488.484680,88.369476 470.104645,93.202621 466.132111,106.170502 
	C460.062897,125.982758 454.834106,146.050888 448.948120,165.921417 
	C444.731049,180.157761 442.133270,194.973419 434.481384,208.042206 
	C424.344299,225.355331 406.684967,230.508347 390.004669,228.677338 
	C382.064484,227.805756 375.771179,228.651672 370.686890,234.846207 
	C366.614197,239.808212 365.694031,245.607178 368.276276,251.330032 
	C370.719238,256.744263 374.658020,261.572327 381.127594,261.873840 
	C391.125854,262.339844 401.203156,262.581451 411.171265,261.865204 
	C425.007416,260.870972 437.199127,255.303131 448.344818,245.944229 
M910.970459,199.842545 
	C910.980286,183.520859 911.115906,167.197800 910.937805,150.878159 
	C910.866882,144.384262 912.954773,139.091583 916.500977,133.621262 
	C922.062622,125.042007 932.519165,122.066025 941.908447,124.958801 
	C951.093506,127.788673 955.997192,135.428558 955.999207,146.487335 
	C956.002075,162.476059 955.882568,178.466385 956.101074,194.452118 
	C956.143555,197.563385 957.123413,200.806091 958.307190,203.730637 
	C961.944031,212.715897 979.037292,213.106766 984.189453,208.090897 
	C986.636108,205.708878 989.724182,202.319275 989.740356,199.370911 
	C989.869385,175.799179 990.253052,152.161835 988.672791,128.671478 
	C987.633606,113.224327 978.645752,101.499969 963.446960,96.298714 
	C947.899109,90.978043 932.331543,90.817039 917.493469,99.190880 
	C915.453308,100.342239 913.555298,101.745308 911.000000,103.419281 
	C911.000000,86.363564 911.024841,70.083290 910.963928,53.803333 
	C910.957397,52.053406 910.700439,50.220444 910.136230,48.570763 
	C907.310913,40.308933 899.559387,38.101658 892.167419,39.157803 
	C880.532959,40.820122 877.088928,47.461018 877.063477,56.142544 
	C876.928284,102.276276 877.068542,148.410797 876.942139,194.544586 
	C876.916687,203.831833 883.835022,209.660126 889.300293,210.886017 
	C899.346191,213.139374 907.627136,208.975723 910.970459,199.842545 
M12.000000,137.500000 
	C12.000008,157.498566 11.971134,177.497253 12.046737,197.495529 
	C12.053937,199.399841 12.274196,201.539001 13.149492,203.162704 
	C16.555655,209.481232 26.481083,212.983902 34.499832,210.777023 
	C40.886993,209.019196 46.300457,202.333847 46.106087,194.664902 
	C45.738850,180.175354 46.316528,165.660141 45.871288,151.174973 
	C45.635914,143.517395 47.792007,137.156342 52.317623,131.179581 
	C59.849461,121.232643 78.822800,121.584351 86.016426,131.728745 
	C90.152512,137.561432 90.753212,144.205780 90.893105,150.800400 
	C91.225273,166.458786 90.931709,182.129623 91.079445,197.793671 
	C91.099808,199.952316 91.741158,202.379517 92.869705,204.202896 
	C96.561333,210.167389 102.440559,211.213730 108.994385,211.069962 
	C117.783302,210.877136 124.949196,205.593552 124.848808,196.713104 
	C124.586700,173.527985 126.960297,150.225281 122.910545,127.183128 
	C120.987679,116.242462 115.799843,107.095322 106.250481,100.565491 
	C96.187141,93.684181 85.045708,92.691017 73.409988,92.950073 
	C64.467018,93.149170 56.432934,95.590805 49.320076,101.068092 
	C48.550854,101.660446 47.392982,101.748100 45.999954,102.206596 
	C45.999954,86.101929 46.025158,70.613655 45.989979,55.125523 
	C45.970581,46.584564 41.139393,40.962574 32.870522,40.036968 
	C30.071688,39.723671 27.193701,39.814529 24.375950,40.032211 
	C17.071547,40.596500 12.007294,46.173981 12.004415,53.506535 
	C11.993553,81.171021 12.000020,108.835510 12.000000,137.500000 
M221.547668,95.911995 
	C217.126740,94.941391 212.728821,93.274490 208.280685,93.127579 
	C193.500427,92.639442 179.092117,92.939819 166.131042,102.594513 
	C160.135864,107.060310 154.394592,111.472321 150.023209,117.360481 
	C142.003708,128.162567 139.618820,140.517334 139.847519,153.915375 
	C140.191208,174.051163 148.734329,189.963501 164.894775,200.725647 
	C186.324280,214.996765 209.882919,215.828079 232.042938,203.014191 
	C257.638885,188.213531 264.675262,161.854950 258.005676,134.385056 
	C253.331390,115.133141 240.491669,102.992043 221.547668,95.911995 
M809.669006,179.001053 
	C798.799866,176.550003 791.460449,170.244751 788.184143,159.434570 
	C783.440735,143.783630 792.531860,127.321236 808.298523,124.677185 
	C818.570312,122.954597 827.540100,125.052490 835.870300,130.112854 
	C845.438538,135.925339 857.612610,127.068260 858.196289,116.368965 
	C858.698792,107.157242 851.175537,100.496666 842.305420,97.045837 
	C826.591614,90.932533 810.245361,91.324821 794.364746,95.253700 
	C775.952087,99.809006 763.060486,111.524391 756.961304,129.956329 
	C753.375977,140.791229 753.031921,151.819046 754.992920,162.985901 
	C757.806519,179.008057 765.419128,192.006332 779.196777,201.014786 
	C791.085815,208.788361 804.195251,211.599976 818.348083,211.094742 
	C832.472351,210.590515 845.270508,206.305054 856.721924,198.429718 
	C860.096741,196.108841 862.829651,191.891663 864.303528,187.961136 
	C867.860046,178.476288 860.502686,165.417542 849.097168,166.744019 
	C844.012146,167.335403 840.837646,170.108429 837.058655,172.455734 
	C828.920776,177.510605 820.668640,182.058456 809.669006,179.001053 
z"/>
<path fill="#FF9900" opacity="1.000000" stroke="none" 
	d="
M512.066284,50.246330 
	C517.009399,64.652794 507.616638,75.288963 494.953064,74.127281 
	C485.455811,73.256073 476.002625,74.467674 466.944153,77.941391 
	C455.667358,82.265778 446.970428,90.026688 443.284637,101.128998 
	C435.135010,125.677048 428.339264,150.674484 420.985413,175.486877 
	C418.639771,183.401093 416.802032,191.519287 413.762299,199.158310 
	C411.067810,205.929642 405.185150,209.989182 397.935455,210.895294 
	C389.141113,211.994476 380.494385,210.368134 376.189209,201.829453 
	C371.635162,192.797318 368.538269,183.013443 365.037811,173.472473 
	C362.194092,165.721573 359.805664,157.803436 356.950012,150.057281 
	C356.371429,148.487854 354.604950,147.356384 353.386078,146.023010 
	C352.415344,147.355942 351.045380,148.552399 350.535858,150.042984 
	C345.610962,164.450790 340.896637,178.930511 335.982574,193.342087 
	C333.317719,201.157242 329.377258,207.957901 320.518097,210.136490 
	C308.464142,213.100723 296.665314,209.570602 292.939789,196.309647 
	C285.190796,168.727158 276.963196,141.277512 269.398193,113.645721 
	C266.130249,101.709145 274.207611,93.129433 284.940735,92.854141 
	C297.566467,92.530304 300.906860,97.919731 303.095795,109.239548 
	C306.358063,126.110130 310.242493,142.861511 313.984283,159.636383 
	C314.329041,161.182129 315.553955,162.531555 316.370148,163.972168 
	C317.627563,162.486328 319.443451,161.199509 320.054932,159.483505 
	C325.489563,144.232376 331.043915,129.009949 335.897217,113.569778 
	C340.294434,99.580666 355.342651,94.870811 366.165802,103.152260 
	C368.623474,105.032745 370.813782,107.999390 371.820526,110.916962 
	C377.417297,127.136353 382.588654,143.502213 387.979370,159.793533 
	C388.499451,161.365341 389.525604,162.769699 390.316864,164.251785 
	C390.792603,164.261642 391.268341,164.271500 391.744110,164.281357 
	C392.497437,162.454437 393.533997,160.691086 393.960480,158.790802 
	C398.364166,139.169815 402.322632,119.441422 407.124481,99.919907 
	C410.296997,87.022293 416.663513,75.546455 425.193573,65.204323 
	C436.404999,51.611221 450.924652,43.645836 467.957184,41.333973 
	C478.929871,39.844620 490.281830,40.672577 501.431335,41.177826 
	C506.472626,41.406277 509.634674,45.520401 512.066284,50.246330 
z"/>
<path fill="#FF9900" opacity="1.000000" stroke="none" 
	d="
M447.987549,246.001999 
	C437.199127,255.303131 425.007416,260.870972 411.171265,261.865204 
	C401.203156,262.581451 391.125854,262.339844 381.127594,261.873840 
	C374.658020,261.572327 370.719238,256.744263 368.276276,251.330032 
	C365.694031,245.607178 366.614197,239.808212 370.686890,234.846207 
	C375.771179,228.651672 382.064484,227.805756 390.004669,228.677338 
	C406.684967,230.508347 424.344299,225.355331 434.481384,208.042206 
	C442.133270,194.973419 444.731049,180.157761 448.948120,165.921417 
	C454.834106,146.050888 460.062897,125.982758 466.132111,106.170502 
	C470.104645,93.202621 488.484680,88.369476 499.240387,96.560669 
	C503.920776,100.125038 506.616241,104.564568 508.446014,109.883614 
	C513.240845,123.822235 518.097473,137.739609 522.925110,151.666962 
	C523.295288,152.735016 523.459778,153.918045 524.027466,154.862778 
	C524.712341,156.002426 525.725830,156.944550 526.597107,157.972137 
	C527.648560,156.843521 529.184692,155.890701 529.668823,154.556229 
	C531.933472,148.314285 533.881348,141.958130 535.992737,135.659668 
	C539.337830,125.680832 542.544128,115.649918 546.160767,105.769783 
	C548.210449,100.170532 556.969360,93.023331 564.269714,92.864304 
	C580.001526,92.521599 585.191467,97.238243 589.741638,113.416153 
	C595.310974,133.217590 600.910767,153.010864 606.369324,172.842926 
	C608.430237,180.330811 610.883362,187.828094 611.792603,195.483231 
	C612.733093,203.401596 605.328735,210.489563 597.294128,211.010391 
	C583.909790,211.878006 580.154236,208.148163 577.045044,193.454865 
	C573.583435,177.096008 570.407898,160.676437 566.902710,144.327271 
	C566.561707,142.736420 564.779358,141.454529 563.666138,140.029205 
	C562.454895,141.386276 560.666748,142.545227 560.122009,144.131210 
	C554.965637,159.145203 549.990479,174.221863 545.030762,189.302750 
	C543.163391,194.980835 540.503052,199.890305 534.811829,202.712402 
	C524.611511,207.770462 512.538696,202.842987 508.953888,192.085815 
	C503.678253,176.255066 498.385590,160.429260 492.925812,144.661728 
	C492.321320,142.915955 490.578705,141.564285 489.363892,140.029846 
	C488.460693,141.610291 487.110535,143.089539 486.726135,144.787445 
	C484.038971,156.655289 481.434143,168.544678 479.027100,180.472397 
	C475.224609,199.315369 470.965729,217.983643 458.997131,233.705811 
	C455.728241,237.999863 451.910614,241.876190 447.987549,246.001999 
z"/>
<path fill="#FF9900" opacity="1.000000" stroke="none" 
	d="
M910.876221,200.262527 
	C907.627136,208.975723 899.346191,213.139374 889.300293,210.886017 
	C883.835022,209.660126 876.916687,203.831833 876.942139,194.544586 
	C877.068542,148.410797 876.928284,102.276276 877.063477,56.142544 
	C877.088928,47.461018 880.532959,40.820122 892.167419,39.157803 
	C899.559387,38.101658 907.310913,40.308933 910.136230,48.570763 
	C910.700439,50.220444 910.957397,52.053406 910.963928,53.803333 
	C911.024841,70.083290 911.000000,86.363564 911.000000,103.419281 
	C913.555298,101.745308 915.453308,100.342239 917.493469,99.190880 
	C932.331543,90.817039 947.899109,90.978043 963.446960,96.298714 
	C978.645752,101.499969 987.633606,113.224327 988.672791,128.671478 
	C990.253052,152.161835 989.869385,175.799179 989.740356,199.370911 
	C989.724182,202.319275 986.636108,205.708878 984.189453,208.090897 
	C979.037292,213.106766 961.944031,212.715897 958.307190,203.730637 
	C957.123413,200.806091 956.143555,197.563385 956.101074,194.452118 
	C955.882568,178.466385 956.002075,162.476059 955.999207,146.487335 
	C955.997192,135.428558 951.093506,127.788673 941.908447,124.958801 
	C932.519165,122.066025 922.062622,125.042007 916.500977,133.621262 
	C912.954773,139.091583 910.866882,144.384262 910.937805,150.878159 
	C911.115906,167.197800 910.980286,183.520859 910.876221,200.262527 
z"/>
<path fill="#FF9900" opacity="1.000000" stroke="none" 
	d="
M12.000000,137.000000 
	C12.000020,108.835510 11.993553,81.171021 12.004415,53.506535 
	C12.007294,46.173981 17.071547,40.596500 24.375950,40.032211 
	C27.193701,39.814529 30.071688,39.723671 32.870522,40.036968 
	C41.139393,40.962574 45.970581,46.584564 45.989979,55.125523 
	C46.025158,70.613655 45.999954,86.101929 45.999954,102.206596 
	C47.392982,101.748100 48.550854,101.660446 49.320076,101.068092 
	C56.432934,95.590805 64.467018,93.149170 73.409988,92.950073 
	C85.045708,92.691017 96.187141,93.684181 106.250481,100.565491 
	C115.799843,107.095322 120.987679,116.242462 122.910545,127.183128 
	C126.960297,150.225281 124.586700,173.527985 124.848808,196.713104 
	C124.949196,205.593552 117.783302,210.877136 108.994385,211.069962 
	C102.440559,211.213730 96.561333,210.167389 92.869705,204.202896 
	C91.741158,202.379517 91.099808,199.952316 91.079445,197.793671 
	C90.931709,182.129623 91.225273,166.458786 90.893105,150.800400 
	C90.753212,144.205780 90.152512,137.561432 86.016426,131.728745 
	C78.822800,121.584351 59.849461,121.232643 52.317623,131.179581 
	C47.792007,137.156342 45.635914,143.517395 45.871288,151.174973 
	C46.316528,165.660141 45.738850,180.175354 46.106087,194.664902 
	C46.300457,202.333847 40.886993,209.019196 34.499832,210.777023 
	C26.481083,212.983902 16.555655,209.481232 13.149492,203.162704 
	C12.274196,201.539001 12.053937,199.399841 12.046737,197.495529 
	C11.971134,177.497253 12.000008,157.498566 12.000000,137.000000 
z"/>
<path fill="#FF9900" opacity="1.000000" stroke="none" 
	d="
M221.954559,95.953438 
	C240.491669,102.992043 253.331390,115.133141 258.005676,134.385056 
	C264.675262,161.854950 257.638885,188.213531 232.042938,203.014191 
	C209.882919,215.828079 186.324280,214.996765 164.894775,200.725647 
	C148.734329,189.963501 140.191208,174.051163 139.847519,153.915375 
	C139.618820,140.517334 142.003708,128.162567 150.023209,117.360481 
	C154.394592,111.472321 160.135864,107.060310 166.131042,102.594513 
	C179.092117,92.939819 193.500427,92.639442 208.280685,93.127579 
	C212.728821,93.274490 217.126740,94.941391 221.954559,95.953438 
M223.080566,137.496521 
	C220.824738,131.792526 216.418381,128.305649 210.975021,126.006248 
	C200.437286,121.554871 187.564224,124.330765 181.193176,131.595215 
	C173.074829,140.851990 172.016129,151.544220 175.918121,163.091202 
	C180.314407,176.100922 197.178085,183.802811 210.327667,177.953934 
	C223.707794,172.002487 231.374771,153.890411 223.080566,137.496521 
z"/>
<path fill="#FF9900" opacity="1.000000" stroke="none" 
	d="
M737.833374,166.000153 
	C736.046692,172.349487 734.930481,178.989960 732.327332,184.984756 
	C727.588440,195.897919 718.384705,202.538437 707.607544,206.635300 
	C690.780151,213.032120 673.468262,213.324554 656.780151,206.744278 
	C639.991272,200.124268 628.069275,188.316772 627.140564,169.169220 
	C626.159790,148.950089 625.789307,128.662903 626.237549,108.429489 
	C626.454590,98.630676 631.904541,91.711807 646.939880,92.945381 
	C654.265686,93.546432 660.953186,101.146278 660.982666,109.802338 
	C661.041687,127.127937 661.106079,144.454849 660.949524,161.779236 
	C660.884094,169.019791 664.498596,173.828705 670.397766,177.022644 
	C680.176270,182.316879 691.817017,180.577332 698.879028,172.310577 
	C701.198181,169.595764 702.739685,165.333984 702.820374,161.738861 
	C703.216187,144.088760 702.958740,126.424782 703.018127,108.765984 
	C703.046509,100.332939 709.015869,93.692970 716.541809,92.962448 
	C730.839966,91.574562 735.991577,98.477959 736.856812,106.775986 
	C736.465881,107.921326 736.232971,108.460663 736.000000,109.468658 
	C736.000000,127.958214 736.000000,145.979111 736.082153,164.277069 
	C736.720642,165.036163 737.276978,165.518158 737.833374,166.000153 
z"/>
<path fill="#FF9900" opacity="1.000000" stroke="none" 
	d="
M810.101074,179.006927 
	C820.668640,182.058456 828.920776,177.510605 837.058655,172.455734 
	C840.837646,170.108429 844.012146,167.335403 849.097168,166.744019 
	C860.502686,165.417542 867.860046,178.476288 864.303528,187.961136 
	C862.829651,191.891663 860.096741,196.108841 856.721924,198.429718 
	C845.270508,206.305054 832.472351,210.590515 818.348083,211.094742 
	C804.195251,211.599976 791.085815,208.788361 779.196777,201.014786 
	C765.419128,192.006332 757.806519,179.008057 754.992920,162.985901 
	C753.031921,151.819046 753.375977,140.791229 756.961304,129.956329 
	C763.060486,111.524391 775.952087,99.809006 794.364746,95.253700 
	C810.245361,91.324821 826.591614,90.932533 842.305420,97.045837 
	C851.175537,100.496666 858.698792,107.157242 858.196289,116.368965 
	C857.612610,127.068260 845.438538,135.925339 835.870300,130.112854 
	C827.540100,125.052490 818.570312,122.954597 808.298523,124.677185 
	C792.531860,127.321236 783.440735,143.783630 788.184143,159.434570 
	C791.460449,170.244751 798.799866,176.550003 810.101074,179.006927 
z"/>
<path fill="#FF9900" opacity="1.000000" stroke="none" 
	d="
M736.000000,164.000000 
	C736.000000,145.979111 736.000000,127.958214 736.305542,109.468674 
	C737.018555,109.000153 737.425964,109.000259 737.833374,109.000366 
	C737.881348,127.024300 737.929321,145.048233 737.599731,163.536026 
	C736.814758,163.999924 736.407410,163.999954 736.000000,164.000000 
z"/>
<path fill="#FF9900" opacity="1.000000" stroke="none" 
	d="
M737.902222,108.695816 
	C737.425964,109.000259 737.018555,109.000153 736.305542,109.000015 
	C736.232971,108.460663 736.465881,107.921326 736.903625,107.167046 
	C737.395996,107.431824 737.683533,107.911545 737.902222,108.695816 
z"/>
<path fill="#FF9900" opacity="1.000000" stroke="none" 
	d="
M736.082153,164.277069 
	C736.407410,163.999954 736.814758,163.999924 737.527710,163.999756 
	C737.880249,164.445831 737.927124,164.892044 737.903687,165.669189 
	C737.276978,165.518158 736.720642,165.036163 736.082153,164.277069 
z"/>
<path fill="#00000000" opacity="1.000000" stroke="none" 
	d="
M223.334869,137.791656 
	C231.374771,153.890411 223.707794,172.002487 210.327667,177.953934 
	C197.178085,183.802811 180.314407,176.100922 175.918121,163.091202 
	C172.016129,151.544220 173.074829,140.851990 181.193176,131.595215 
	C187.564224,124.330765 200.437286,121.554871 210.975021,126.006248 
	C216.418381,128.305649 220.824738,131.792526 223.334869,137.791656 
z"/>
</svg>